<svg id="Layer_1" data-name="Layer 1" xmlns="http://www.w3.org/2000/svg" viewBox="0 0 190.8 190.8"><defs><style>.cls-1{fill:#e6e6e6;}.cls-2{fill:#c1272d;}.cls-3{fill:#4d4d4d;}</style></defs><title>Census Logo Simple</title><path class="cls-1" d="M134.9,55.9a55.86,55.86,0,0,1,0,79l28,28a95.4,95.4,0,0,0,0-134.92"/><path class="cls-2" d="M162.85,27.94a95.4,95.4,0,1,0,0,134.92l-28-28a55.86,55.86,0,1,1,0-79h0l28-28"/><path class="cls-3" d="M188.82,14.69S137,91.76,113.86,112c-1.28,1.12-1.5,1.28-2,1.68a25.63,25.63,0,0,1-35.74-3l-0.5-.6c-9-10.63-7.49-26.63,3-35.81,0.47-.41.57-0.52,1.83-1.55,23.76-19.51,108.38-58,108.38-58h0Z"/></svg>